HIERARCHY
ROOT root
{
	OFFSET	0	13.1	24.9
	CHANNELS 6  Xposition Yposition Zposition Xrotation Yrotation Zrotation
	JOINT spine_1
	{
		OFFSET	0	9.99999	0
		CHANNELS 3  Xrotation Yrotation Zrotation
		JOINT spine_2
		{
			OFFSET	0	112	-10
			CHANNELS 3  Xrotation Yrotation Zrotation
			JOINT spine_3
			{
				OFFSET	0	206.5	19.3
				CHANNELS 3  Xrotation Yrotation Zrotation
				JOINT spine_4
				{
					OFFSET	0	110.4	14.6
					CHANNELS 3  Xrotation Yrotation Zrotation
					JOINT neck_1
					{
						OFFSET	0	71.8	-50.3
						CHANNELS 3  Xrotation Yrotation Zrotation
						JOINT neck_2
						{
							OFFSET	0	86.2	-25.8
							CHANNELS 3  Xrotation Yrotation Zrotation
							JOINT head_ee
							{
								OFFSET	0	179.8	-8.7
								CHANNELS 3  Xrotation Yrotation Zrotation
								End Site
								{
									OFFSET	1	0	0
								}
							}
						}
					}
					JOINT left_clavicle
					{
						OFFSET	-43.2	22.4	-70.8
						CHANNELS 3  Xrotation Yrotation Zrotation
						JOINT left_shoulder
						{
							OFFSET	-93.9	-5.79999	48.7
							CHANNELS 3  Xrotation Yrotation Zrotation
							JOINT left_elbow
							{
								OFFSET	-291.4	-30.8	15.2
								CHANNELS 3  Xrotation Yrotation Zrotation
								JOINT left_lowarm_twist
								{
									OFFSET	-110.7	-3.89999	13.6
									CHANNELS 3  Xrotation Yrotation Zrotation
									JOINT left_hand
									{
										OFFSET	-110.7	-3.89999	13.6
										CHANNELS 3  Xrotation Yrotation Zrotation
										JOINT left_ee
										{
											OFFSET	-80.8	-5.10001	12.1
											CHANNELS 3  Xrotation Yrotation Zrotation
											End Site
											{
												OFFSET	1	0	0
											}
										}
									}
								}
							}
						}
					}
					JOINT right_clavicle
					{
						OFFSET	43.2	22.4	-70.8
						CHANNELS 3  Xrotation Yrotation Zrotation
						JOINT right_shoulder
						{
							OFFSET	93.9	-5.79999	48.7
							CHANNELS 3  Xrotation Yrotation Zrotation
							JOINT right_elbow
							{
								OFFSET	291.4	-30.8	15.2
								CHANNELS 3  Xrotation Yrotation Zrotation
								JOINT right_lowarm_twist
								{
									OFFSET	110.7	-3.89999	13.6
									CHANNELS 3  Xrotation Yrotation Zrotation
									JOINT right_hand
									{
										OFFSET	110.7	-3.89999	13.6
										CHANNELS 3  Xrotation Yrotation Zrotation
										JOINT right_ee
										{
											OFFSET	80.8	-5.10001	12.1
											CHANNELS 3  Xrotation Yrotation Zrotation
											End Site
											{
												OFFSET	1	0	0
											}
										}
									}
								}
							}
						}
					}
				}
			}
		}
	}
	JOINT left_hip
	{
		OFFSET	-82.8	-127.5	0.300001
		CHANNELS 3  Xrotation Yrotation Zrotation
		JOINT left_knee
		{
			OFFSET	-28.2	-396.7	2.2
			CHANNELS 3  Xrotation Yrotation Zrotation
			JOINT left_ankle
			{
				OFFSET	-11.7	-411.3	35.4
				CHANNELS 3  Xrotation Yrotation Zrotation
				JOINT left_toes
				{
					OFFSET	0	-60	-88.6
					CHANNELS 3  Xrotation Yrotation Zrotation
					JOINT left_foot_ee
					{
						OFFSET	-22.5	-16.5	-42.2
						CHANNELS 3  Xrotation Yrotation Zrotation
						End Site
						{
							OFFSET	1	0	0
						}
					}
				}
			}
		}
	}
	JOINT right_hip
	{
		OFFSET	82.8	-127.5	0.300001
		CHANNELS 3  Xrotation Yrotation Zrotation
		JOINT right_knee
		{
			OFFSET	28.2	-396.7	2.2
			CHANNELS 3  Xrotation Yrotation Zrotation
			JOINT right_ankle
			{
				OFFSET	11.7	-411.3	35.4
				CHANNELS 3  Xrotation Yrotation Zrotation
				JOINT right_toes
				{
					OFFSET	0	-60	-88.6
					CHANNELS 3  Xrotation Yrotation Zrotation
					JOINT right_foot_ee
					{
						OFFSET	22.5	-16.5	-42.2
						CHANNELS 3  Xrotation Yrotation Zrotation
						End Site
						{
							OFFSET	1	0	0
						}
					}
				}
			}
		}
	}
}
MOTION
Frames: 11
Frame Time: 0.02
492.506 683.046 -1884.43 -147.244 81.0464 152.751 3.51508 -0.364819 -2.03885 3.51737 -0.234371 -2.05792 3.52478 0.0762638 -2.06982 3.51889 -0.251511 -2.0559 -1.87467 -10.8284 5.04149 -1.42176 -23.5271 3.98634 -0.0 0.0 -0.0 10.2903 -25.6988 19.5462 -8.67634 1.65817 76.134 0.990238 -26.129 0.229795 25.6044 0.181169 -3.23862 -0.369573 2.85425 -1.2485 -0.0 0.0 -0.0 6.25006 -0.972504 -12.12 -17.5746 0.612692 -52.3535 1.88195 42.9879 -0.741147 -7.15592 0.306404 -0.861367 -1.56196 1.10858 10.9949 0.0 0.0 0.0 20.3836 -28.7077 -6.45697 -14.4784 0.320538 2.19286 26.994 5.55875 -3.55878 3.01867 -0.0 -0.0 -0.0 0.0 -0.0 2.09712 -30.5102 -9.81427 5.0611 0.241251 0.738756 38.1139 -18.3177 4.81544 25.5301 -0.0 -0.0 0.0 0.0 0.0 
488.038 682.199 -1882.57 -149.484 80.9292 155.241 3.45759 -0.394156 -2.08642 3.45998 -0.260623 -2.10726 3.46855 0.0597596 -2.12246 3.46237 -0.276118 -2.10528 -1.95449 -11.2187 4.94052 -1.49149 -24.1574 3.81564 -0.0 0.0 -0.0 10.7978 -26.9323 20.5507 -7.80863 -0.295115 73.0563 1.00012 -26.3547 0.234164 25.267 0.188232 -3.19611 -0.0582824 2.36082 0.605208 -0.0 0.0 -0.0 6.24852 -0.711513 -12.1146 -17.7496 0.230654 -53.1754 1.86913 42.7926 -0.732419 -7.43695 0.320619 -0.894376 -1.62631 0.653231 11.2264 0.0 0.0 0.0 19.9212 -27.9566 -6.48603 -14.0002 0.318854 2.11952 27.7292 7.89617 -3.64178 3.05046 -0.0 -0.0 -0.0 0.0 -0.0 1.03886 -29.4221 -10.0509 5.22915 0.250379 0.762911 36.8923 -17.7292 4.68668 25.5995 -0.0 -0.0 0.0 0.0 0.0 
482.238 681.539 -1880.86 -149.94 81.3635 156.043 3.43331 -0.468482 -2.21136 3.43597 -0.326854 -2.23667 3.44764 0.0145597 -2.26037 3.44067 -0.342516 -2.23433 -1.89646 -11.1568 4.97879 -1.43046 -24.0719 3.8767 -0.0 0.0 -0.0 10.6838 -27.0237 20.2838 -7.50076 -1.15914 73.3866 1.02669 -26.957 0.246086 24.277 0.207512 -3.07112 0.0563336 2.41303 1.38714 -0.0 0.0 -0.0 6.51981 -1.10833 -12.6479 -16.7241 -2.31036 -54.0092 1.89224 43.1437 -0.748172 -7.75614 0.336962 -0.931784 -1.73725 0.187205 11.7698 0.0 0.0 0.0 18.7484 -27.1707 -7.27526 -13.2038 0.314691 1.9974 28.3458 7.58974 -3.70958 3.08338 -0.0 -0.0 -0.0 0.0 -0.0 0.300622 -30.5935 -10.1058 4.47434 0.209942 0.654215 38.2127 -17.2075 4.80421 26.4436 -0.0 -0.0 0.0 0.0 0.0 
478.836 680.845 -1879.62 -145.726 82.1673 151.91 3.43782 -0.441527 -2.32555 3.44078 -0.292693 -2.34892 3.45154 0.0651481 -2.36618 3.44386 -0.309258 -2.34679 -2.3772 -11.4004 4.91212 -1.93528 -24.491 3.669 -0.0 0.0 -0.0 10.8068 -26.4011 20.631 -6.97142 -1.69913 73.3205 0.980343 -25.9023 0.225455 23.9701 0.21305 -3.03231 0.0589968 2.32948 1.36993 -0.0 0.0 -0.0 6.60935 -2.37422 -12.8223 -16.0069 -1.63935 -54.2953 1.8901 43.1114 -0.74671 -8.23683 0.361967 -0.987949 -1.79799 -0.311793 11.9538 0.0 0.0 0.0 17.8654 -26.2648 -7.78239 -12.0609 0.305752 1.82227 28.973 9.79083 -3.78447 3.31583 -0.0 -0.0 -0.0 0.0 -0.0 -0.48018 -33.0718 -10.8378 5.02181 0.239128 0.733105 39.1185 -18.4903 4.91369 26.8872 -0.0 -0.0 0.0 0.0 0.0 
476.589 680.554 -1878.91 -145.235 81.8632 151.603 3.46259 -0.473449 -2.30769 3.46549 -0.325686 -2.33312 3.47753 0.0290513 -2.35555 3.46995 -0.343226 -2.33061 -1.98976 -11.2715 4.70016 -1.54234 -24.067 3.54401 -0.0 0.0 -0.0 10.6493 -27.3636 20.167 -7.00374 -2.7256 72.4574 0.97319 -25.7378 0.222339 23.6622 0.218396 -2.99334 0.293595 2.18964 2.86925 -0.0 0.0 -0.0 6.75791 -0.912137 -13.1142 -17.4764 -1.47672 -55.522 1.84668 42.4479 -0.717222 -8.50631 0.376191 -1.01934 -2.06176 0.149074 13.9777 0.0 0.0 0.0 18.0721 -26.5058 -7.87981 -12.392 0.308701 1.87298 26.4775 8.71921 -3.50265 2.12729 -0.0 -0.0 -0.0 0.0 -0.0 -0.218835 -31.4514 -10.5346 4.85982 0.230413 0.709791 38.7733 -19.6862 4.90652 27.0065 -0.0 -0.0 0.0 0.0 0.0 
473.4 682.208 -1880.47 -143.061 81.855 149.434 3.43391 -0.476354 -2.2932 3.43678 -0.329507 -2.31884 3.44893 0.0242915 -2.342 3.44144 -0.345788 -2.31647 -1.41867 -11.0547 5.41473 -0.894759 -24.201 4.46431 -0.0 0.0 -0.0 10.7434 -27.1441 20.4041 -6.66052 -2.73843 71.8957 0.943653 -25.0537 0.209672 22.9213 0.230404 -2.89946 0.370281 2.29722 3.42314 -0.0 0.0 -0.0 7.1093 -2.3762 -13.7922 -17.2248 -1.24442 -55.3899 1.8136 41.9326 -0.695001 -9.23245 0.415256 -1.10361 -1.95814 0.189481 13.2837 0.0 0.0 0.0 18.2173 -26.5214 -7.99742 -12.2424 0.307405 1.85007 26.1993 10.0833 -3.47508 2.6353 -0.0 -0.0 -0.0 0.0 -0.0 -0.532169 -31.469 -10.8405 5.05496 0.240919 0.737874 38.4107 -18.8876 4.85508 27.3653 -0.0 -0.0 0.0 0.0 0.0 
474.02 683.129 -1881.45 -137.093 82.1632 143.832 3.56881 -0.46646 -2.37405 3.57189 -0.314492 -2.39891 3.58366 0.0455457 -2.41899 3.57565 -0.336949 -2.39586 -1.50534 -10.9425 5.32873 -1.00082 -23.9366 4.36393 -0.0 0.0 -0.0 10.4936 -27.2484 19.8309 -6.77174 -4.4306 71.6754 0.925857 -24.6378 0.202194 22.0574 0.24287 -2.78981 0.363783 1.94638 3.23551 -0.0 0.0 -0.0 6.96555 -0.937224 -13.5222 -18.4189 0.54098 -57.2352 1.72355 40.4871 -0.635673 -7.85922 0.342284 -0.943845 -2.51579 1.26072 17.6679 0.0 0.0 0.0 18.7613 -24.8761 -8.93637 -12.252 0.30749 1.85154 22.9961 6.46615 -3.09517 1.55401 -0.0 -0.0 -0.0 0.0 -0.0 0.0777411 -31.0758 -11.0485 4.69216 0.221463 0.685635 36.4349 -18.9599 4.66465 26.4336 -0.0 -0.0 0.0 0.0 0.0 
469.793 682.97 -1880.2 -138.781 81.9992 145.237 3.50406 -0.531428 -2.40833 3.50721 -0.37715 -2.43724 3.52189 -0.0081138 -2.46622 3.51362 -0.397388 -2.43403 -1.11843 -10.8642 7.90021 -0.368765 -25.8107 7.26379 -0.0 0.0 -0.0 10.8777 -27.3073 20.6871 -6.52153 -2.88395 71.3193 0.905597 -24.161 0.193825 21.9946 0.243711 -2.78184 0.527992 1.73699 4.24278 -0.0 0.0 -0.0 7.62967 -2.61877 -14.802 -17.6873 -3.50509 -57.3901 1.70773 40.2264 -0.625426 -8.12825 0.356277 -0.97528 -1.9191 -0.550569 12.6701 0.0 0.0 0.0 18.7837 -25.3641 -8.10355 -12.4862 0.309487 1.88742 25.1275 11.4219 -3.35709 1.85727 -0.0 -0.0 -0.0 0.0 -0.0 -1.03237 -34.5241 -11.4737 5.70734 0.276738 0.8315 39.3132 -18.8572 4.93942 28.2586 -0.0 -0.0 0.0 0.0 0.0 
468.93 683.237 -1880.52 -132.979 82.7468 139.583 3.45032 -0.463391 -2.42013 3.45352 -0.3085 -2.44469 3.46534 0.0633738 -2.46325 3.45702 -0.326328 -2.44237 -0.67224 -10.8633 6.48288 -0.0206007 -24.664 5.81803 -0.0 0.0 -0.0 11.1499 -25.8887 21.4621 -6.11183 -3.1787 70.1441 0.888782 -23.7625 0.186996 20.738 0.258714 -2.62203 0.526596 2.43754 4.51988 -0.0 0.0 -0.0 7.48792 -0.788466 -14.5546 -19.9475 1.15996 -60.2603 1.45981 35.8702 -0.472516 -7.40418 0.318953 -0.89053 -2.03064 -2.44447 12.5381 0.0 0.0 0.0 18.6254 -25.1659 -8.74101 -12.646 0.310765 1.9119 21.2589 7.16073 -2.88555 1.87995 -0.0 -0.0 -0.0 0.0 -0.0 -0.398972 -31.8328 -10.9621 4.40463 0.206279 0.64415 37.1963 -17.4132 4.71062 27.402 -0.0 -0.0 0.0 0.0 0.0 
465.151 684.786 -1879.36 -128.63 83.0237 135.287 3.52499 -0.434162 -2.57909 3.52865 -0.269225 -2.60147 3.53924 0.122505 -2.61248 3.52984 -0.291483 -2.59907 -0.0959465 -10.6043 8.10005 0.738091 -25.4737 7.76702 -0.0 0.0 -0.0 11.1606 -26.9787 21.3633 -6.51971 -3.40465 70.7651 0.891705 -23.8319 0.188175 20.9243 0.256711 -2.64574 0.345522 1.56975 2.95861 -0.0 0.0 -0.0 7.32327 1.63642 -14.2377 -20.6416 -2.68605 -64.6277 1.44339 35.5632 -0.462933 -1.79669 0.06676 -0.219712 -2.33554 -3.21992 14.2426 0.0 0.0 0.0 18.6455 -24.8698 -8.77986 -12.857 0.312348 1.94424 20.807 7.6193 -2.83037 0.390271 -0.0 -0.0 -0.0 0.0 -0.0 -0.672767 -30.767 -11.1162 4.99113 0.237472 0.728691 37.2453 -19.3554 4.75234 28.4647 -0.0 -0.0 0.0 0.0 0.0 
458.641 686.277 -1881.84 -124.628 83.096 131.265 3.70413 -0.439783 -2.51115 3.70759 -0.279153 -2.53402 3.71822 0.0946312 -2.54759 3.7093 -0.308768 -2.53059 0.0876267 -10.1513 9.66781 1.07527 -25.928 9.60076 -0.0 0.0 -0.0 10.9662 -27.2141 20.8972 -6.70556 -3.12226 70.9659 0.886081 -23.6983 0.185909 20.5546 0.260611 -2.59868 0.298161 1.72479 2.70749 -0.0 0.0 -0.0 7.8142 -1.38923 -15.191 -21.6611 -3.6753 -62.2553 1.46698 36.0035 -0.476722 -5.24659 0.21414 -0.63533 -1.72444 -1.27998 11.0048 0.0 0.0 0.0 18.3992 -24.1551 -8.96032 -12.6156 0.310527 1.90724 21.4143 9.0476 -2.90633 0.0271116 -0.0 -0.0 -0.0 0.0 -0.0 -1.21536 -33.8959 -11.7742 5.0026 0.238091 0.730342 38.4977 -19.5709 4.8778 28.1598 -0.0 -0.0 0.0 0.0 0.0 
